<?xml version="1.0" standalone="no"?>
<!DOCTYPE svg PUBLIC "-//W3C//DTD SVG 20010904//EN"
 "http://www.w3.org/TR/2001/REC-SVG-20010904/DTD/svg10.dtd">
<svg version="1.0" xmlns="http://www.w3.org/2000/svg"
 width="447.000000pt" height="142.000000pt" viewBox="0 0 447.000000 142.000000"
 preserveAspectRatio="xMidYMid meet">

<g transform="translate(0.000000,142.000000) scale(0.100000,-0.100000)"
fill="#000000" stroke="none">
<path d="M1785 1083 c-4 -10 -45 -124 -92 -253 -99 -272 -106 -287 -138 -302
-18 -8 -25 -19 -25 -40 l0 -28 95 0 95 0 0 35 c0 32 -2 35 -29 35 l-30 0 18
52 c17 49 21 53 57 60 21 4 66 7 99 7 60 1 61 1 73 -32 19 -52 15 -88 -8 -94
-14 -4 -20 -14 -20 -34 l0 -29 120 0 120 0 0 35 c0 30 -3 35 -24 35 -18 0 -27
8 -35 33 -6 17 -55 146 -108 284 l-98 253 -31 0 c-21 0 -34 -6 -39 -17z m49
-256 c20 -60 36 -111 36 -113 0 -2 -31 -4 -70 -4 -38 0 -70 3 -70 6 0 4 14 49
30 101 17 51 30 101 30 110 0 27 6 13 44 -100z"/>
<path d="M3176 991 c-18 -33 -71 -81 -92 -81 -10 0 -14 -12 -14 -40 0 -38 2
-40 30 -40 l30 0 -1 -139 c-1 -196 24 -241 136 -241 60 0 104 19 139 60 l28
34 -24 17 c-22 17 -24 17 -49 -7 -19 -18 -35 -25 -55 -22 -46 5 -54 36 -52
178 l3 125 58 3 58 3 -3 32 c-3 32 -4 32 -60 35 l-58 3 0 54 c0 54 0 55 -30
55 -22 0 -33 -7 -44 -29z"/>
<path d="M2306 905 c-52 -18 -112 -79 -133 -134 -36 -93 -15 -209 49 -268 82
-77 242 -69 322 16 29 30 29 31 11 51 -18 20 -19 20 -39 1 -52 -47 -140 -59
-178 -24 -71 64 -75 230 -6 288 54 46 115 24 110 -38 -6 -71 83 -88 108 -22
11 30 -6 80 -36 106 -45 39 -137 49 -208 24z"/>
<path d="M2765 905 c-53 -18 -118 -91 -135 -149 -7 -25 -11 -74 -8 -110 5 -80
41 -138 107 -173 89 -47 233 -19 289 56 21 28 21 29 2 46 -18 17 -21 16 -50
-8 -65 -55 -151 -52 -194 6 -17 23 -22 46 -24 115 -3 78 -1 91 20 122 28 42
67 58 106 44 24 -9 27 -14 24 -51 -3 -35 0 -44 22 -58 34 -23 70 -13 85 23 43
103 -105 186 -244 137z"/>
<path d="M3567 908 c-88 -23 -130 -116 -71 -155 24 -15 29 -15 53 -2 21 12 26
22 25 52 -1 31 3 37 28 48 54 22 98 -18 98 -91 0 -26 -3 -28 -58 -38 -129 -23
-192 -75 -192 -161 0 -36 6 -49 34 -77 30 -30 40 -34 89 -34 41 0 63 6 90 24
33 23 35 23 40 5 5 -17 15 -19 86 -19 l81 0 0 35 c0 30 -3 35 -24 35 l-24 0
-4 149 c-3 132 -5 153 -24 178 -42 57 -129 77 -227 51z m131 -294 c-2 -37 -9
-51 -30 -67 -46 -35 -109 2 -93 54 9 27 62 59 98 59 27 0 28 -1 25 -46z"/>
<path d="M3900 875 c0 -24 5 -35 15 -35 8 0 15 -5 15 -12 0 -6 37 -92 82 -190
l81 -179 40 3 41 3 68 170 c49 124 76 177 98 197 18 17 30 38 30 53 0 25 -1
25 -85 25 l-85 0 0 -35 c0 -31 3 -35 26 -35 21 0 25 -3 19 -17 -6 -15 -63
-166 -81 -213 -3 -9 -21 22 -43 75 -50 118 -54 140 -36 155 8 7 15 25 15 41
l0 29 -100 0 -100 0 0 -35z"/>
</g>
</svg>
