<?xml version="1.0" standalone="no"?>
<!DOCTYPE svg PUBLIC "-//W3C//DTD SVG 20010904//EN"
 "http://www.w3.org/TR/2001/REC-SVG-20010904/DTD/svg10.dtd">
<svg version="1.0" xmlns="http://www.w3.org/2000/svg"
 width="500.000000pt" height="500.000000pt" viewBox="0 0 500.000000 500.000000"
 preserveAspectRatio="xMidYMid meet">
<metadata>
Created by potrace 1.16, written by Peter Selinger 2001-2019
</metadata>
<g transform="translate(0.000000,500.000000) scale(0.100000,-0.100000)"
fill="#000000" stroke="none">
<path d="M766 1941 c-93 -257 -120 -311 -154 -311 -7 0 -12 -13 -12 -30 l0
-30 95 0 95 0 0 35 c0 32 -3 35 -29 35 l-29 0 20 54 c19 52 21 54 65 60 25 3
70 6 99 6 l52 0 17 -50 c18 -53 10 -80 -21 -80 -9 0 -14 -11 -14 -30 l0 -30
120 0 120 0 0 35 c0 31 -3 35 -25 35 -14 0 -25 5 -25 11 0 6 -48 134 -107 285
l-106 274 -32 0 -32 0 -97 -269z m114 82 c0 -10 14 -56 30 -103 17 -46 30 -88
30 -92 0 -4 -31 -8 -70 -8 -38 0 -70 3 -70 8 0 4 14 45 30 92 16 47 30 93 30
103 0 9 5 17 10 17 6 0 10 -8 10 -17z"/>
<path d="M2250 2100 c-15 -37 -64 -80 -91 -80 -16 0 -19 -7 -19 -40 0 -38 2
-40 30 -40 l30 0 0 -127 c0 -150 10 -193 51 -227 59 -50 190 -26 235 42 14 22
14 25 -2 43 -16 18 -17 18 -46 -6 -34 -29 -69 -32 -92 -9 -13 12 -16 41 -16
155 l0 139 55 0 55 0 0 35 0 35 -55 0 -55 0 0 55 0 55 -34 0 c-28 0 -36 -5
-46 -30z"/>
<path d="M1375 2015 c-53 -18 -118 -91 -135 -149 -7 -25 -11 -74 -8 -110 5
-80 41 -138 107 -173 89 -47 233 -19 289 56 21 28 21 29 2 46 -18 17 -21 16
-50 -8 -65 -55 -151 -52 -194 6 -17 23 -22 46 -24 115 -3 78 -1 91 20 122 28
42 67 58 106 44 24 -9 27 -14 24 -51 -3 -35 0 -44 22 -58 34 -23 70 -13 85 23
43 103 -105 186 -244 137z"/>
<path d="M1820 2003 c-169 -89 -172 -349 -5 -424 87 -40 205 -17 270 51 27 28
28 30 11 49 -17 19 -18 19 -60 -10 -75 -53 -158 -40 -193 30 -24 48 -24 173
-1 217 35 65 133 71 133 9 1 -72 41 -103 90 -71 30 20 34 78 9 115 -44 63
-167 79 -254 34z"/>
<path d="M2635 2016 c-49 -18 -95 -67 -95 -101 0 -26 31 -65 53 -65 30 0 57
31 57 66 0 27 5 37 24 45 56 26 96 -11 96 -86 0 -33 -2 -34 -47 -41 -66 -9
-135 -40 -169 -75 -25 -26 -29 -38 -29 -85 0 -50 3 -59 33 -85 27 -24 41 -29
85 -29 34 0 63 7 85 20 39 24 52 25 52 5 0 -12 16 -15 86 -15 l85 0 -3 33 c-3
28 -7 32 -30 32 l-28 -1 0 141 c0 154 -10 190 -63 229 -35 26 -136 32 -192 12z"/>
<path d="M2970 1985 c0 -23 5 -35 13 -35 8 0 21 -17 29 -37 8 -21 46 -107 83
-190 l69 -153 41 0 40 0 44 113 c67 172 107 254 130 269 13 8 21 23 21 40 l0
28 -85 0 -85 0 0 -35 c0 -31 3 -35 25 -35 14 0 25 -1 25 -2 0 -2 -20 -57 -45
-123 l-44 -120 -14 35 c-73 173 -80 202 -51 218 9 5 14 18 12 33 -3 23 -6 24
-105 27 l-103 3 0 -36z"/>
</g>
</svg>
